{"title":"Humpty Sharma Ki Dulhania (2014) 720p Blu-Ray x264 [Hindi AC3 5.","uid":11026811,"size":1078059813,"categoryP":"video","categoryS":"hd___movies","magnet":"?xt=urn:btih:354f8661644b74bfe3569d2b9fd66faa855cff92&amp;dn=Humpty+Sharma+Ki+Dulhania+%282014%29+720p+Blu-Ray+x264+%5BHindi+AC3+5.&amp;tr=udp%3A%2F%2Ftracker.openbittorrent.com%3A80&amp;tr=udp%3A%2F%2Fopen.demonii.com%3A1337&amp;tr=udp%3A%2F%2Ftracker.coppersurfer.tk%3A6969&amp;tr=udp%3A%2F%2Fexodus.desync.com%3A6969","seeders":1,"leechers":0,"uploader":"Mx-","files":4,"time":1410669684,"description":"[center][IMG]http://i.imgur.com/karXmyP.gif[/IMG]\n\n[b]SilverTorrent - Clean And Verified Torrents Download\n\n\n------------------------------------------------------[/b]\n\n[IMG]http://i.imgur.com/LqRwcZb.png[/IMG]\n[b][color=maroon]Humpty Sharma Ki Dulhania (2014) 720p Blu-Ray x264 [Hindi AC3 5.1] by Mx- (HDDR)[/color][/b]\n\n[IMG]http://i.imgur.com/AsrScOz.png[/IMG]\n\n[IMG]http://i.imgur.com/IR1KRWH.png[/IMG]\n[b]\n[url]http://www.imdb.com/title/tt3678938/[/url]\nRatings: 6.1/10[/b]\n\n[IMG]http://i.imgur.com/akLXdDM.jpg[/IMG]\n[b]General[/b] \nComplete name : Humpty Sharma Ki Dulhania (2014) 720p Blu-Ray x264 [Hindi AC3 5.1] by Mx- (HDDR)\nFormat : Matroska \nFormat version : Version 4 / Version 2 \nFile size : 1 021 MiB \nDuration : 2h 12mn \nOverall bit rate : 1 079 Kbps \nMovie name : Mx- Present \n[/size]\n\n[img]http://imageshack.com/a/img69/7254/sxc8.jpg[/img]\n[b]Video[/b]\nID : 1 \nFormat : AVC \nFormat/Info : Advanced Video Codec \nFormat profile : &lt;a class=&quot;__cf_email__&quot; href=&quot;/cdn-cgi/l/email-protection&quot; data-cfemail=&quot;8bc3e2ece3cbc7b8a5ba&quot;&gt;[email&amp;#160;protected]&lt;/a&gt;&lt;script cf-hash='f9e31' type=&quot;text/javascript&quot;&gt;\n/* &lt;![CDATA[ */!function(){try{var t=&quot;currentScript&quot;in document?document.currentScript:function(){for(var t=document.getElementsByTagName(&quot;script&quot;),e=t.length;e--;)if(t[e].getAttribute(&quot;cf-hash&quot;))return t[e]}();if(t&amp;&amp;t.previousSibling){var e,r,n,i,c=t.previousSibling,a=c.getAttribute(&quot;data-cfemail&quot;);if(a){for(e=&quot;&quot;,r=parseInt(a.substr(0,2),16),n=2;a.length-n;n+=2)i=parseInt(a.substr(n,2),16)^r,e+=String.fromCharCode(i);e=document.createTextNode(e),c.parentNode.replaceChild(e,c)}}}catch(u){}}();/* ]]&gt; */&lt;/script&gt; \nFormat settings, CABAC : Yes \nFormat settings, ReFrames : 4 frames \nCodec ID : V_MPEG4/ISO/AVC \nDuration : 2h 12mn \nBit rate : 949 Kbps \nWidth : 1 280 pixels \nHeight : 544 pixels \nDisplay aspect ratio : 2.35:1 \nFrame rate mode : Constant \nFrame rate : 24.000 fps \nColor space : YUV \nChroma subsampling : 4:2:0 \nBit depth : 8 bits \nScan type : Progressive \nBits/(Pixel*Frame) : 0.057 \nStream size : 879 MiB (86%) \nTitle : Mx- Present \nWriting library : x264\nLanguage : Hindi \nDefault : Yes \nForced : No\n\n[img]http://imageshack.com/a/img43/1041/xbcd.jpg[/img]\n[b]Audio #1[/b] \nID : 2 \nFormat : AC-3 \nFormat/Info : Audio Coding 3 \nMode extension : CM (complete main) \nFormat settings, Endianness : Big \nCodec ID : A_AC3 \nDuration : 2h 12mn \nBit rate mode : Constant \nBit rate : 128 Kbps \nChannel(s) : 6 channels \nChannel positions : Front: L C R, Side: L R, LFE \nSampling rate : 48.0 KHz \nBit depth : 16 bits \nCompression mode : Lossy \nStream size : 121 MiB (12%) \nTitle : Mx- \nLanguage : Hindi \nDefault : Yes \nForced : No \n\n\n\n[IMG]http://i.imgur.com/ctjKCA8.jpg[/IMG]\n[IMG]http://i.imgur.com/IOgphtc.jpg[/IMG]\n\n[IMG]http://i.imgur.com/hldlEox.jpg[/IMG]\n\n[IMG]http://i.imgur.com/hYLPz4p.jpg[/IMG]\n\n[IMG]http://i.imgur.com/6UYCoXU.jpg[/IMG]\n[IMG]http://i.imgur.com/vLSasmQ.png[/IMG]\n\n[b][color=red]\n::::Thanks Team HDRR::::\nBoniin,Invincible,Tariq Qureshi,~HI-MAN\nTaha Rizvi,TBI,Mx-,Sumo Man[/color]\n\n[color=maroon]For More Join Us On Facebook[/color]\n[/center][/b]\n\nGroup HD Movie Releases[/color][/center][/b][/url]\nDESI ROCKER RELEAESEES[/color][/center][/b][/url]\nMovie Zone[/color][/center][/b][/url]\nAudio Zone[/color][/center][/b][/url]\n\n[center][color=maroon][b]:::DON'T FORGET TO SAY THANKS:::[/b][/color][/center]\n[center][img]http://sphotos-f.ak.fbcdn.net/hphotos-ak-ash3/521853_133463873505680_1907053731_n.jpg[/img]\n[IMG]http://i.imgur.com/FtKQVmO.gif[/IMG][/center]","torrent":{"xt":"urn:btih:354f8661644b74bfe3569d2b9fd66faa855cff92","amp;dn":"Humpty+Sharma+Ki+Dulhania+%282014%29+720p+Blu-Ray+x264+%5BHindi+AC3+5.","amp;tr":["udp%3A%2F%2Ftracker.openbittorrent.com%3A80","udp%3A%2F%2Fopen.demonii.com%3A1337","udp%3A%2F%2Ftracker.coppersurfer.tk%3A6969","udp%3A%2F%2Fexodus.desync.com%3A6969"],"infoHash":"354f8661644b74bfe3569d2b9fd66faa855cff92","infoHashBuffer":{"type":"Buffer","data":[53,79,134,97,100,75,116,191,227,86,157,43,159,214,111,170,133,92,255,146]},"announce":[],"urlList":[]}}